<svg xmlns="http://www.w3.org/2000/svg" xmlns:xlink="http://www.w3.org/1999/xlink"><defs><linearGradient id="paint0_linear_1330_71" x1="28.2373" y1="14" x2="90.1653" y2="21.664" gradientUnits="userSpaceOnUse"><stop stop-color="#ED0233"/><stop offset="1" stop-color="#003EB7"/></linearGradient></defs><symbol id="arrow-next" viewBox="0 0 18 34"><g fill="none"><path d="M1 1L17 17L1 33"/></g></symbol><symbol id="arrow-prev" viewBox="0 0 18 34"><g fill="none"><path d="M17 1L0.999999 17L17 33"/></g></symbol><symbol id="faq-minus" viewBox="0 0 40 40"><g fill="none"><rect width="40" height="40" rx="20" fill="#1C3374"/><path d="M30 20H20H10" stroke="white"/></g></symbol><symbol id="faq-plus" viewBox="0 0 40 40"><g fill="none"><rect x="0.5" y="0.5" width="39" height="39" rx="19.5" stroke="#1C3374"/><path d="M20 10V20M20 30V20M20 20H30M20 20H10" stroke="#1C3374"/></g></symbol><symbol id="icon-close" viewBox="0 0 20 20"><g fill="none"><path d="M.293 18.291a1 1 0 101.414 1.414L10 11.413l8.292 8.292a1 1 0 101.414-1.414l-8.292-8.292 8.292-8.292A1 1 0 1018.291.293L9.999 8.585 1.707.293A1 1 0 10.293 1.707L8.585 10 .293 18.291z"/></g></symbol><symbol id="logo-supergym-footer" viewBox="0 0 106 19"><g fill="none"><path d="M8.30469 13.6875C8.30469 13.2891 8.25781 12.9375 8.16406 12.6328C8.07031 12.3203 7.90625 12.0391 7.67188 11.7891C7.4375 11.5391 7.10938 11.3008 6.6875 11.0742C6.26562 10.8477 5.73047 10.6172 5.08203 10.3828C4.37891 10.1328 3.74219 9.85547 3.17188 9.55078C2.60156 9.23828 2.11328 8.88281 1.70703 8.48438C1.30859 8.08594 1 7.62891 0.78125 7.11328C0.5625 6.59766 0.453125 6.00781 0.453125 5.34375C0.453125 4.67969 0.566406 4.06641 0.792969 3.50391C1.02734 2.94141 1.35547 2.45312 1.77734 2.03906C2.20703 1.61719 2.72266 1.28906 3.32422 1.05469C3.92578 0.820312 4.59766 0.703125 5.33984 0.703125C6.44922 0.703125 7.38281 0.949219 8.14062 1.44141C8.90625 1.92578 9.48438 2.5625 9.875 3.35156C10.2656 4.13281 10.4609 4.96875 10.4609 5.85938H8.30469C8.30469 5.21875 8.19922 4.65234 7.98828 4.16016C7.78516 3.66016 7.46484 3.26953 7.02734 2.98828C6.59766 2.69922 6.03516 2.55469 5.33984 2.55469C4.71484 2.55469 4.19922 2.67578 3.79297 2.91797C3.39453 3.16016 3.09766 3.48828 2.90234 3.90234C2.71484 4.31641 2.62109 4.78906 2.62109 5.32031C2.62109 5.67969 2.68359 6.00781 2.80859 6.30469C2.93359 6.59375 3.125 6.86328 3.38281 7.11328C3.64844 7.36328 3.97656 7.59375 4.36719 7.80469C4.76562 8.01562 5.23438 8.21875 5.77344 8.41406C6.60938 8.6875 7.32422 8.99219 7.91797 9.32812C8.51172 9.66406 8.99609 10.043 9.37109 10.4648C9.74609 10.8789 10.0195 11.3516 10.1914 11.8828C10.3711 12.4062 10.4609 13 10.4609 13.6641C10.4609 14.3594 10.3438 14.9883 10.1094 15.5508C9.88281 16.1133 9.55078 16.5938 9.11328 16.9922C8.67578 17.3906 8.14844 17.6992 7.53125 17.918C6.91406 18.1289 6.21875 18.2344 5.44531 18.2344C4.77344 18.2344 4.11328 18.125 3.46484 17.9062C2.82422 17.6875 2.24219 17.3594 1.71875 16.9219C1.19531 16.4844 0.777344 15.9453 0.464844 15.3047C0.152344 14.6562 -0.00390625 13.9062 -0.00390625 13.0547H2.15234C2.15234 13.6406 2.23828 14.1445 2.41016 14.5664C2.58203 14.9805 2.82031 15.3242 3.125 15.5977C3.42969 15.8711 3.77734 16.0742 4.16797 16.207C4.56641 16.332 4.99219 16.3945 5.44531 16.3945C6.07031 16.3945 6.59375 16.2852 7.01562 16.0664C7.44531 15.8477 7.76562 15.5352 7.97656 15.1289C8.19531 14.7227 8.30469 14.2422 8.30469 13.6875ZM21.3125 0.9375H23.4688V12.9492C23.4688 14.2305 23.2227 15.2578 22.7305 16.0312C22.2383 16.8047 21.5898 17.3672 20.7852 17.7188C19.9883 18.0625 19.1289 18.2344 18.207 18.2344C17.2227 18.2344 16.3359 18.0625 15.5469 17.7188C14.7578 17.3672 14.1289 16.8047 13.6602 16.0312C13.1992 15.2578 12.9688 14.2305 12.9688 12.9492V0.9375H15.1133V12.9492C15.1133 13.8398 15.2383 14.5352 15.4883 15.0352C15.7461 15.5352 16.1055 15.8867 16.5664 16.0898C17.0352 16.293 17.582 16.3945 18.207 16.3945C18.8398 16.3945 19.3867 16.293 19.8477 16.0898C20.3164 15.8867 20.6758 15.5352 20.9258 15.0352C21.1836 14.5352 21.3125 13.8398 21.3125 12.9492V0.9375ZM32.1992 11.3086H28.4727V9.46875H32.1992C32.9023 9.46875 33.4688 9.32812 33.8984 9.04688C34.3359 8.76562 34.6523 8.375 34.8477 7.875C35.0508 7.375 35.1523 6.80469 35.1523 6.16406C35.1523 5.57812 35.0508 5.02734 34.8477 4.51172C34.6523 3.99609 34.3359 3.58203 33.8984 3.26953C33.4688 2.94922 32.9023 2.78906 32.1992 2.78906H28.918V18H26.7617V0.9375H32.1992C33.3008 0.9375 34.2305 1.16016 34.9883 1.60547C35.7461 2.05078 36.3203 2.66797 36.7109 3.45703C37.1094 4.23828 37.3086 5.13281 37.3086 6.14062C37.3086 7.23438 37.1094 8.16797 36.7109 8.94141C36.3203 9.71484 35.7461 10.3047 34.9883 10.7109C34.2305 11.1094 33.3008 11.3086 32.1992 11.3086ZM49.25 16.1602V18H41.8438V16.1602H49.25ZM42.2305 0.9375V18H40.0742V0.9375H42.2305ZM48.2539 8.27344V10.1133H41.8438V8.27344H48.2539ZM49.1328 0.9375V2.78906H41.8438V0.9375H49.1328ZM52.0156 0.9375H56.7852C57.8945 0.9375 58.8242 1.13281 59.5742 1.52344C60.332 1.91406 60.9023 2.49219 61.2852 3.25781C61.6758 4.01563 61.8711 4.94922 61.8711 6.05859C61.8711 6.83984 61.7422 7.55469 61.4844 8.20312C61.2266 8.84375 60.8516 9.39062 60.3594 9.84375C59.8672 10.2891 59.2695 10.6211 58.5664 10.8398L57.9805 11.0859H53.7266L53.7031 9.24609H56.7617C57.418 9.24609 57.9648 9.10547 58.4023 8.82422C58.8398 8.53516 59.168 8.14844 59.3867 7.66406C59.6055 7.17969 59.7148 6.64453 59.7148 6.05859C59.7148 5.40234 59.6172 4.82812 59.4219 4.33594C59.2266 3.84375 58.9141 3.46484 58.4844 3.19922C58.0625 2.92578 57.4961 2.78906 56.7852 2.78906H54.1719V18H52.0156V0.9375ZM60.207 18L56.8086 10.2656L59.0469 10.2539L62.5156 17.8594V18H60.207ZM75.4414 9.50391V15.8672C75.2539 16.1172 74.9688 16.4297 74.5859 16.8047C74.2109 17.1797 73.6836 17.5117 73.0039 17.8008C72.3242 18.0898 71.4336 18.2344 70.332 18.2344C69.4492 18.2344 68.6406 18.0859 67.9062 17.7891C67.1797 17.4922 66.5508 17.0469 66.0195 16.4531C65.4961 15.8516 65.0898 15.1055 64.8008 14.2148C64.5117 13.3164 64.3672 12.2656 64.3672 11.0625V7.86328C64.3672 6.66797 64.4883 5.62109 64.7305 4.72266C64.9727 3.82422 65.332 3.07813 65.8086 2.48438C66.293 1.89062 66.8906 1.44531 67.6016 1.14844C68.3203 0.851563 69.1562 0.703125 70.1094 0.703125C71.2109 0.703125 72.1484 0.910156 72.9219 1.32422C73.6953 1.73828 74.293 2.33594 74.7148 3.11719C75.1445 3.89844 75.3867 4.83594 75.4414 5.92969H73.2852C73.2305 5.22656 73.082 4.625 72.8398 4.125C72.5977 3.61719 72.2539 3.23047 71.8086 2.96484C71.3633 2.69141 70.7969 2.55469 70.1094 2.55469C69.4531 2.55469 68.8984 2.66406 68.4453 2.88281C67.9922 3.10156 67.6211 3.42969 67.332 3.86719C67.0508 4.30469 66.8438 4.85547 66.7109 5.51953C66.5859 6.18359 66.5234 6.95703 66.5234 7.83984V11.0625C66.5234 11.9688 66.6133 12.7578 66.793 13.4297C66.9727 14.1016 67.2266 14.6562 67.5547 15.0938C67.8906 15.5312 68.293 15.8594 68.7617 16.0781C69.2305 16.2891 69.7578 16.3945 70.3438 16.3945C71.0078 16.3945 71.5312 16.3242 71.9141 16.1836C72.2969 16.043 72.5898 15.8828 72.793 15.7031C73.0039 15.5234 73.1719 15.3789 73.2969 15.2695V11.332H70.168V9.50391H75.4414ZM79.8945 0.9375L83.375 9.50391L86.8672 0.9375H89.3047L84.4531 11.625V18H82.2969V11.625L77.4453 0.9375H79.8945ZM92.2227 0.9375H94.3086L98.7734 14.8477L103.227 0.9375H105.312L99.582 18H97.9414L92.2227 0.9375ZM91.543 0.9375H93.3711L93.6875 11.3438V18H91.543V0.9375ZM104.152 0.9375H105.98V18H103.836V11.3438L104.152 0.9375Z" fill="white"/></g></symbol><symbol id="logo-supergym" viewBox="0 0 119 20"><g fill="none"><path d="M9.31836 14.1377C9.31836 13.8076 9.28874 13.5072 9.22949 13.2363C9.17025 12.9655 9.04329 12.7158 8.84863 12.4873C8.66243 12.2588 8.38737 12.0303 8.02344 11.8018C7.66797 11.5732 7.20247 11.3363 6.62695 11.0908C5.94141 10.8031 5.27702 10.4984 4.63379 10.1768C3.99056 9.84668 3.41081 9.46582 2.89453 9.03418C2.37826 8.60254 1.96777 8.09473 1.66309 7.51074C1.36686 6.91829 1.21875 6.22428 1.21875 5.42871C1.21875 4.65007 1.3584 3.94336 1.6377 3.30859C1.92546 2.67383 2.33171 2.13216 2.85645 1.68359C3.38118 1.22656 3.99479 0.875326 4.69727 0.629883C5.4082 0.38444 6.19954 0.261719 7.07129 0.261719C8.25618 0.261719 9.28027 0.507161 10.1436 0.998047C11.0153 1.48893 11.6882 2.16178 12.1621 3.0166C12.6445 3.87142 12.8857 4.85319 12.8857 5.96191H9.17871C9.17871 5.43717 9.10254 4.97591 8.9502 4.57812C8.80632 4.17188 8.57357 3.85449 8.25195 3.62598C7.93034 3.39746 7.51562 3.2832 7.00781 3.2832C6.53385 3.2832 6.1403 3.38053 5.82715 3.5752C5.52246 3.76139 5.29395 4.01953 5.1416 4.34961C4.99772 4.67122 4.92578 5.03516 4.92578 5.44141C4.92578 5.74609 4.99772 6.02116 5.1416 6.2666C5.29395 6.50358 5.5013 6.7194 5.76367 6.91406C6.02604 7.10026 6.33496 7.28223 6.69043 7.45996C7.05436 7.6377 7.45215 7.8112 7.88379 7.98047C8.72168 8.31055 9.46224 8.67448 10.1055 9.07227C10.7487 9.46159 11.2861 9.90169 11.7178 10.3926C12.1494 10.875 12.4753 11.4209 12.6953 12.0303C12.9154 12.6396 13.0254 13.3337 13.0254 14.1123C13.0254 14.8825 12.89 15.585 12.6191 16.2197C12.3568 16.846 11.9717 17.3877 11.4639 17.8447C10.9561 18.2933 10.3424 18.6403 9.62305 18.8857C8.91211 19.1312 8.11654 19.2539 7.23633 19.2539C6.38151 19.2539 5.57324 19.1354 4.81152 18.8984C4.0498 18.653 3.37695 18.2848 2.79297 17.7939C2.21745 17.2946 1.76465 16.6641 1.43457 15.9023C1.10449 15.1322 0.939453 14.2223 0.939453 13.1729H4.65918C4.65918 13.7314 4.71419 14.2096 4.82422 14.6074C4.93424 14.9967 5.10352 15.3099 5.33203 15.5469C5.56055 15.7754 5.83984 15.9489 6.16992 16.0674C6.50846 16.1774 6.89355 16.2324 7.3252 16.2324C7.81608 16.2324 8.2054 16.1393 8.49316 15.9531C8.78939 15.7669 9.00098 15.5173 9.12793 15.2041C9.25488 14.891 9.31836 14.5355 9.31836 14.1377ZM23.8418 0.515625H27.5488V13.2109C27.5488 14.6328 27.2865 15.7923 26.7617 16.6895C26.2454 17.5781 25.5303 18.2298 24.6162 18.6445C23.7021 19.0508 22.6569 19.2539 21.4805 19.2539C20.2956 19.2539 19.2419 19.0508 18.3193 18.6445C17.3968 18.2298 16.6774 17.5781 16.1611 16.6895C15.6533 15.7923 15.3994 14.6328 15.3994 13.2109V0.515625H19.1064V13.2109C19.1064 14.015 19.1953 14.6328 19.373 15.0645C19.5592 15.4961 19.8258 15.7923 20.1729 15.9531C20.5283 16.1055 20.9642 16.1816 21.4805 16.1816C22.0052 16.1816 22.4368 16.1055 22.7754 15.9531C23.1224 15.7923 23.3848 15.4961 23.5625 15.0645C23.7487 14.6328 23.8418 14.015 23.8418 13.2109V0.515625ZM36.6895 12.4873H32.9062V9.40234H36.6895C37.2142 9.40234 37.6416 9.28385 37.9717 9.04688C38.3102 8.8099 38.5557 8.48405 38.708 8.06934C38.8604 7.64616 38.9365 7.1722 38.9365 6.64746C38.9365 6.11426 38.8561 5.61914 38.6953 5.16211C38.543 4.69661 38.3018 4.31999 37.9717 4.03223C37.6501 3.74447 37.2227 3.60059 36.6895 3.60059H34.0996V19H30.3926V0.515625H36.6895C37.9336 0.515625 39.0042 0.777995 39.9014 1.30273C40.7985 1.82747 41.484 2.55111 41.958 3.47363C42.4404 4.3877 42.6816 5.43717 42.6816 6.62207C42.6816 7.81543 42.4404 8.85221 41.958 9.73242C41.484 10.6042 40.7985 11.2812 39.9014 11.7637C39.0042 12.2461 37.9336 12.4873 36.6895 12.4873ZM55.7705 15.9277V19H47.7344V15.9277H55.7705ZM48.8896 0.515625V19H45.1699V0.515625H48.8896ZM54.6914 8.00586V10.9893H47.7344V8.00586H54.6914ZM55.7451 0.515625V3.60059H47.7344V0.515625H55.7451ZM57.9541 0.515625H63.8828C65.1185 0.515625 66.1722 0.727214 67.0439 1.15039C67.9157 1.57357 68.5843 2.19987 69.0498 3.0293C69.5153 3.85872 69.748 4.88281 69.748 6.10156C69.748 7.10026 69.6126 7.95508 69.3418 8.66602C69.071 9.36849 68.6859 9.95671 68.1865 10.4307C67.6872 10.8962 67.0905 11.2686 66.3965 11.5479L65.2666 12.2207H60.4551L60.4424 9.13574H63.7812C64.2891 9.13574 64.708 9.02572 65.0381 8.80566C65.3766 8.57715 65.6263 8.25977 65.7871 7.85352C65.9564 7.4388 66.041 6.95638 66.041 6.40625C66.041 5.82227 65.9648 5.32292 65.8125 4.9082C65.6686 4.48503 65.4359 4.16341 65.1143 3.94336C64.8011 3.71484 64.3906 3.60059 63.8828 3.60059H61.6738V19H57.9541V0.515625ZM66.3457 19L62.9561 10.7607L66.8535 10.748L70.3193 18.8223V19H66.3457ZM84.8936 9.28809V16.9053C84.6312 17.1846 84.2461 17.5104 83.7383 17.8828C83.2389 18.2467 82.583 18.5684 81.7705 18.8477C80.9665 19.1185 79.9847 19.2539 78.8252 19.2539C77.8011 19.2539 76.8701 19.0931 76.0322 18.7715C75.2028 18.4499 74.4876 17.9632 73.8867 17.3115C73.2943 16.6514 72.8415 15.8304 72.5283 14.8486C72.2152 13.8584 72.0586 12.6862 72.0586 11.332V8.18359C72.0586 6.84635 72.2067 5.68262 72.5029 4.69238C72.8076 3.69368 73.2477 2.86426 73.8232 2.2041C74.3988 1.54395 75.0843 1.05306 75.8799 0.731445C76.6839 0.409831 77.5895 0.249023 78.5967 0.249023C79.9847 0.249023 81.123 0.481771 82.0117 0.947266C82.9089 1.41276 83.5859 2.10254 84.043 3.0166C84.5085 3.93066 84.7878 5.05208 84.8809 6.38086H81.2881C81.2288 5.60221 81.0977 4.99284 80.8945 4.55273C80.6999 4.11263 80.4248 3.79948 80.0693 3.61328C79.7139 3.41862 79.2526 3.32129 78.6855 3.32129C78.1947 3.32129 77.7673 3.41016 77.4033 3.58789C77.0394 3.75716 76.7347 4.03646 76.4893 4.42578C76.2438 4.8151 76.0618 5.31445 75.9434 5.92383C75.8249 6.5332 75.7656 7.27799 75.7656 8.1582V11.332C75.7656 12.2038 75.8333 12.9486 75.9688 13.5664C76.1042 14.1842 76.3031 14.6878 76.5654 15.0771C76.8363 15.4665 77.1748 15.75 77.5811 15.9277C77.9958 16.097 78.4824 16.1816 79.041 16.1816C79.4896 16.1816 79.8493 16.1351 80.1201 16.042C80.391 15.9489 80.6068 15.8516 80.7676 15.75C80.9368 15.64 81.0765 15.5553 81.1865 15.4961V12.0938H78.5332V9.28809H84.8936ZM90.3145 0.515625L93.1328 8.84375L95.9258 0.515625H99.9756L94.999 12.2842V19H91.2539V12.2842L86.2773 0.515625H90.3145ZM103.01 0.515625H106.272L110.043 13.1602L113.801 0.515625H116.683L111.427 19H108.646L103.01 0.515625ZM101.689 0.515625H104.8L105.282 12.7031V19H101.689V0.515625ZM115.261 0.515625H118.384V19H114.804V12.7031L115.261 0.515625Z" fill="white"/></g></symbol><symbol id="minus" viewBox="0 0 20 2"><g fill="none"><path d="M20 1H10H0" stroke="white"/></g></symbol><symbol id="odnoklassniki" viewBox="0 0 22 22"><path d="M11 3.32798C12.3229 3.32798 13.3988 4.38262 13.3988 5.67944C13.3988 6.97235 12.3229 8.02699 11 8.02699C9.67708 8.02699 8.60121 6.97235 8.60121 5.67944C8.60121 4.38262 9.67708 3.32798 11 3.32798ZM11 11.355C14.1957 11.355 16.7938 8.8082 16.7938 5.67944C16.7938 2.54676 14.1957 0 11 0C7.80427 0 5.21023 2.54676 5.21023 5.67944C5.21023 8.8082 7.80427 11.355 11 11.355ZM13.343 15.9876C14.5225 15.722 15.6581 15.2649 16.7061 14.6204C17.499 14.1322 17.7381 13.1049 17.24 12.3276C16.738 11.5464 15.694 11.312 14.897 11.8042C12.5261 13.265 9.47386 13.265 7.09898 11.8042C6.30603 11.312 5.25805 11.5464 4.75996 12.3276C4.26188 13.1049 4.50096 14.1322 5.29391 14.6204C6.34189 15.2649 7.47753 15.722 8.657 15.9876L5.41744 19.1593C4.75598 19.8077 4.75598 20.8624 5.41744 21.5108C5.75215 21.835 6.1825 21.999 6.61683 21.999C7.05116 21.999 7.4855 21.835 7.82021 21.5108L11 18.3937L14.1838 21.5108C14.8452 22.1631 15.9171 22.1631 16.5826 21.5108C17.244 20.8624 17.244 19.8077 16.5826 19.1593L13.343 15.9876Z"/></symbol><symbol id="ok" viewBox="0 0 25 25"><path class="path-background" d="M12.5 0C5.59692 0 0 5.59692 0 12.5C0 19.4031 5.59692 25 12.5 25C19.4031 25 25 19.4031 25 12.5C25 5.59692 19.4031 0 12.5 0Z"/><path class="path-picture" d="M12.6803 6.88903C13.5788 6.88903 14.3095 7.64334 14.3095 8.57085C14.3095 9.49557 13.5788 10.2499 12.6803 10.2499C11.7818 10.2499 11.0511 9.49557 11.0511 8.57085C11.0511 7.64334 11.7818 6.88903 12.6803 6.88903ZM12.6803 12.6301C14.8507 12.6301 16.6152 10.8086 16.6152 8.57085C16.6152 6.33029 14.8507 4.50879 12.6803 4.50879C10.5098 4.50879 8.748 6.33029 8.748 8.57085C8.748 10.8086 10.5098 12.6301 12.6803 12.6301ZM14.2716 15.9435C15.0726 15.7535 15.8439 15.4266 16.5557 14.9657C17.0942 14.6164 17.2566 13.8817 16.9183 13.3258C16.5773 12.767 15.8683 12.5994 15.327 12.9514C13.7168 13.9962 11.6437 13.9962 10.0308 12.9514C9.49223 12.5994 8.78047 12.767 8.44219 13.3258C8.1039 13.8817 8.26628 14.6164 8.80483 14.9657C9.51659 15.4266 10.2879 15.7535 11.089 15.9435L8.88873 18.212C8.43948 18.6757 8.43948 19.43 8.88873 19.8938C9.11606 20.1257 9.40834 20.243 9.70332 20.243C9.99831 20.243 10.2933 20.1257 10.5206 19.8938L12.6803 17.6644L14.8426 19.8938C15.2918 20.3603 16.0198 20.3603 16.4718 19.8938C16.921 19.43 16.921 18.6757 16.4718 18.212L14.2716 15.9435Z"/></symbol><symbol id="play" viewBox="0 0 13 15"><path d="M13 7.5L0.249999 14.8612L0.25 0.138783L13 7.5Z"/></symbol><symbol id="player-button" viewBox="0 0 100 100"><g fill="none"><circle opacity="0.2" cx="50" cy="50" r="49" stroke="#ED0233" stroke-width="2"/><circle cx="50" cy="50" r="36" fill="url(#paint0_linear_1330_71)"/><path d="M59 49.5L46.25 56.8612L46.25 42.1388L59 49.5Z" fill="white"/></g></symbol><symbol id="plus" viewBox="0 0 20 20"><path d="M10 0V10M10 20V10M10 10H20M10 10H0"/></symbol><symbol id="reddit" viewBox="0 0 25 25"><path class="path-background" d="M12.5 0C5.59692 0 0 5.59692 0 12.5C0 19.4031 5.59692 25 12.5 25C19.4031 25 25 19.4031 25 12.5C25 5.59692 19.4031 0 12.5 0Z"/><path class="path-picture" d="M13.851 5.55566C13.4056 5.55566 12.9877 5.7816 12.7196 6.10741C12.4516 6.43323 12.3038 6.8304 12.1962 7.24897C12.0252 7.92201 11.9724 8.66877 11.9597 9.34181C10.7081 9.42505 9.57457 9.79606 8.63316 10.3692C8.2511 10.0481 7.79095 9.86978 7.3498 9.87454C6.84743 9.87929 6.3704 10.0957 6.01579 10.5404C5.33823 11.3895 5.41632 12.7784 6.20154 13.6036C6.15299 13.8581 6.1171 14.1197 6.1171 14.3837C6.1171 17.1805 8.9751 19.4446 12.5001 19.4446C16.0251 19.4446 18.8831 17.1781 18.8831 14.3837C18.8831 14.1197 18.8472 13.8581 18.7987 13.6036C19.5839 12.7784 19.662 11.3895 18.9844 10.5404C18.6298 10.0957 18.1528 9.87929 17.6504 9.87454C17.2093 9.86978 16.7491 10.0481 16.3671 10.3692C15.4299 9.79843 14.3027 9.42743 13.0574 9.34181C13.0742 8.72109 13.1186 8.07659 13.2431 7.59143C13.3212 7.28702 13.4141 7.06584 13.5133 6.94455C13.6125 6.82326 13.6843 6.77332 13.851 6.77332C14.212 6.77332 14.2584 6.88985 14.4758 7.17286C14.5856 7.31556 14.7122 7.49393 14.9148 7.66754C15.1175 7.84115 15.4172 7.99098 15.7423 7.99098V6.77332C15.6515 6.77332 15.6346 6.77094 15.5734 6.71624C15.5122 6.66154 15.4278 6.5355 15.3032 6.37378C15.0542 6.04796 14.5708 5.55566 13.851 5.55566ZM17.3634 5.66982C16.5233 5.66982 15.8436 6.43561 15.8436 7.38215C15.8436 8.32869 16.5233 9.09448 17.3634 9.09448C18.2034 9.09448 18.8831 8.32869 18.8831 7.38215C18.8831 6.43561 18.2034 5.66982 17.3634 5.66982ZM17.3634 6.27865C17.9037 6.27865 18.3428 6.77332 18.3428 7.38215C18.3428 7.99098 17.9037 8.48565 17.3634 8.48565C16.823 8.48565 16.3839 7.99098 16.3839 7.38215C16.3839 6.77332 16.823 6.27865 17.3634 6.27865ZM12.5001 10.2931C15.4911 10.2931 18.0219 12.1695 18.0219 14.3837C18.0219 16.6002 15.4911 18.4742 12.5001 18.4742C9.50913 18.4742 6.9783 16.6002 6.9783 14.3837C6.9783 12.1695 9.50913 10.2931 12.5001 10.2931ZM7.36669 10.8449C7.51655 10.8472 7.67275 10.8853 7.82262 10.959C7.28015 11.4228 6.84955 11.9555 6.55615 12.5572C6.35351 12.0863 6.40839 11.4989 6.65746 11.1873C6.83899 10.959 7.09017 10.8425 7.36669 10.8449ZM17.6335 10.8449C17.91 10.8425 18.1612 10.959 18.3428 11.1873C18.5918 11.4989 18.6467 12.0863 18.4441 12.5572C18.1507 11.9555 17.7201 11.4228 17.1776 10.959C17.3275 10.8853 17.4837 10.8472 17.6335 10.8449ZM10.3387 12.3669C9.79831 12.3669 9.35927 12.8616 9.35927 13.4704C9.35927 14.0793 9.79831 14.5739 10.3387 14.5739C10.879 14.5739 11.3181 14.0793 11.3181 13.4704C11.3181 12.8616 10.879 12.3669 10.3387 12.3669ZM14.6616 12.3669C14.1212 12.3669 13.6821 12.8616 13.6821 13.4704C13.6821 14.0793 14.1212 14.5739 14.6616 14.5739C15.2019 14.5739 15.641 14.0793 15.641 13.4704C15.641 12.8616 15.2019 12.3669 14.6616 12.3669ZM9.81519 16.115C10.1593 16.9165 11.2231 17.6942 12.5001 17.6942C13.7771 17.6942 14.8579 16.9165 15.2019 16.115C14.5771 16.5693 13.5914 16.8761 12.5001 16.8761C11.4088 16.8761 10.44 16.5693 9.81519 16.115Z"/></symbol><symbol id="rouble" viewBox="0 0 30 42"><g fill="none"><path fill-rule="evenodd" clip-rule="evenodd" d="M18.5 6H10V17H18.5C21.5376 17 24 14.5376 24 11.5C24 8.46243 21.5376 6 18.5 6ZM4 0V23H18.5C24.8513 23 30 17.8513 30 11.5C30 5.14873 24.8513 0 18.5 0H4Z" fill="#102654"/><path fill-rule="evenodd" clip-rule="evenodd" d="M0 17H6V23H0V17Z" fill="#102654"/><path fill-rule="evenodd" clip-rule="evenodd" d="M3.65854 28.3214V18H9.65854V28.3214H21V34.3214H9.65854V42H3.65854V34.3214H0V28.3214H3.65854Z" fill="#102654"/></g></symbol><symbol id="vk" viewBox="0 0 25 25"><path class="path-background" d="M12.5 0C5.59692 0 0 5.59692 0 12.5C0 19.4031 5.59692 25 12.5 25C19.4031 25 25 19.4031 25 12.5C25 5.59692 19.4031 0 12.5 0Z"/><path class="path-picture" d="M13.7227 15.0518C14.1654 14.9087 14.7322 15.9964 15.3355 16.4127C15.7884 16.728 16.1352 16.6599 16.1352 16.6599L17.7434 16.6368C17.7434 16.6368 18.5838 16.5849 18.1865 15.9172C18.1536 15.8616 17.9536 15.4222 16.9895 14.5179C15.9815 13.5718 16.1181 13.7251 17.3317 12.0896C18.0712 11.0927 18.3671 10.4838 18.2745 10.2244C18.1856 9.97486 17.6424 10.0397 17.6424 10.0397L15.8305 10.0522C15.6541 10.0527 15.5045 10.1073 15.4365 10.2907C15.4351 10.2925 15.1489 11.0621 14.7674 11.7164C13.9612 13.1005 13.6394 13.1741 13.506 13.0875C13.1999 12.887 13.2773 12.2832 13.2773 11.8539C13.2773 10.5125 13.4773 9.9531 12.8855 9.80863C12.6878 9.76047 12.5433 9.72898 12.0391 9.72435C11.3945 9.71463 10.8472 9.72435 10.5369 9.8767C10.3309 9.97996 10.173 10.2064 10.2688 10.2194C10.3892 10.2356 10.6592 10.2934 10.8036 10.4907C10.9893 10.7463 10.9838 11.3191 10.9838 11.3191C10.9838 11.3191 11.0898 12.8986 10.7337 13.0944C10.4892 13.2287 10.1549 12.9546 9.43578 11.6979C9.06858 11.0552 8.79121 10.3448 8.79121 10.3448C8.79121 10.3448 8.7375 10.2129 8.64026 10.1406C8.52449 10.055 8.36243 10.0277 8.36243 10.0277L6.64265 10.0388C6.64265 10.0388 6.38427 10.0462 6.28935 10.1601C6.20507 10.261 6.2824 10.4694 6.2824 10.4694C6.2824 10.4694 7.62942 13.6557 9.15471 15.2606C10.5531 16.734 12.1423 16.6363 12.1423 16.6363H12.8624C12.8624 16.6363 13.0795 16.6113 13.1907 16.4918C13.2944 16.3807 13.2898 16.1719 13.2898 16.1719C13.2898 16.1719 13.2754 15.1953 13.7227 15.0518Z"/></symbol><symbol id="vkontakte" viewBox="0 0 22 22"><path d="M21.8039 15.7032C21.7448 15.6086 21.379 14.8488 19.6189 13.2871C17.7762 11.6518 18.0238 11.9173 20.2432 9.0897C21.5949 7.36763 22.1353 6.31598 21.9662 5.86641C21.8053 5.43786 20.8111 5.55091 20.8111 5.55091L17.5053 5.56932C17.5053 5.56932 17.2606 5.53777 17.0777 5.64162C16.9003 5.74415 16.7862 5.98077 16.7862 5.98077C16.7862 5.98077 16.2623 7.31373 15.5637 8.44688C14.091 10.8381 13.501 10.9643 13.2604 10.8157C12.7007 10.47 12.841 9.42491 12.841 8.6835C12.841 6.36594 13.2082 5.39974 12.1246 5.14997C11.7643 5.06715 11.5003 5.01194 10.5803 5.00274C9.4005 4.99091 8.4008 5.00668 7.83563 5.27091C7.45885 5.44706 7.16871 5.84011 7.3461 5.86246C7.56474 5.89007 8.05977 5.98997 8.32242 6.33176C8.66207 6.77214 8.64969 7.76331 8.64969 7.76331C8.64969 7.76331 8.84496 10.491 8.19453 10.8302C7.74763 11.0629 7.13571 10.5883 5.82248 8.41796C5.15006 7.30716 4.64127 6.07805 4.64127 6.07805C4.64127 6.07805 4.54364 5.84932 4.369 5.72706C4.15724 5.57852 3.86022 5.53119 3.86022 5.53119L0.716735 5.5496C0.716735 5.5496 0.245075 5.56274 0.0718122 5.75861C-0.0821991 5.93345 0.0594363 6.29364 0.0594363 6.29364C0.0594363 6.29364 2.52087 11.7977 5.30682 14.5727C7.86313 17.1164 10.7646 16.9494 10.7646 16.9494H12.0792C12.0792 16.9494 12.4766 16.9074 12.6787 16.6984C12.8658 16.5064 12.8589 16.1463 12.8589 16.1463C12.8589 16.1463 12.8327 14.4597 13.6523 14.2112C14.4595 13.9667 15.4963 15.8413 16.595 16.563C17.4256 17.1085 18.0568 16.9889 18.0568 16.9889L20.9953 16.9494C20.9953 16.9494 22.5327 16.8587 21.8039 15.7032Z"/></symbol></svg>